<svg width="70" height="70" viewBox="0 0 70 70" fill="none" xmlns="http://www.w3.org/2000/svg">
<rect x="0.507812" width="69.4961" height="69.4961" rx="34.7481" fill="#BC3206"/>
<path d="M49.9202 40.34L42.2753 36.9143L42.2542 36.9046C41.8573 36.7348 41.4244 36.6667 40.9945 36.7064C40.5647 36.746 40.1515 36.8922 39.7924 37.1318C39.7501 37.1597 39.7095 37.19 39.6707 37.2226L35.7209 40.5899C33.2185 39.3744 30.6351 36.8104 29.4196 34.3406L32.7918 30.3307C32.8242 30.2901 32.855 30.2496 32.8843 30.2057C33.1186 29.8476 33.2608 29.4371 33.2982 29.0107C33.3356 28.5843 33.267 28.1553 33.0985 27.7618V27.7424L29.663 20.0845C29.4403 19.5705 29.0573 19.1423 28.5712 18.8639C28.0851 18.5855 27.522 18.4717 26.966 18.5396C24.7671 18.8289 22.7487 19.9088 21.2878 21.5776C19.8269 23.2463 19.0234 25.3898 19.0274 27.6077C19.0274 40.4925 29.5105 50.9757 42.3954 50.9757C44.6132 50.9797 46.7567 50.1762 48.4254 48.7153C50.0942 47.2544 51.1741 45.236 51.4634 43.037C51.5315 42.4812 51.4179 41.9182 51.1398 41.4322C50.8617 40.9461 50.4339 40.563 49.9202 40.34ZM42.3954 48.3792C36.8882 48.3732 31.6084 46.1829 27.7143 42.2887C23.8202 38.3946 21.6298 33.1148 21.6238 27.6077C21.6177 26.023 22.1886 24.4903 23.2299 23.2958C24.2712 22.1013 25.7117 21.3267 27.2824 21.1166C27.2818 21.123 27.2818 21.1296 27.2824 21.136L30.6903 28.7631L27.336 32.7778C27.3019 32.817 27.2709 32.8587 27.2435 32.9028C26.9993 33.2775 26.856 33.709 26.8276 34.1554C26.7992 34.6017 26.8865 35.0479 27.0812 35.4506C28.5514 38.4576 31.5812 41.4646 34.6206 42.9332C35.0263 43.1261 35.475 43.2104 35.923 43.178C36.371 43.1455 36.8029 42.9975 37.1765 42.7482C37.2183 42.7203 37.2584 42.6899 37.2966 42.6573L41.2416 39.2917L48.8686 42.7076H48.8865C48.6789 44.2805 47.9055 45.7239 46.7107 46.7678C45.516 47.8117 43.9819 48.3846 42.3954 48.3792Z" fill="#DDDDDD"/>
</svg>
