<svg width="21" height="20" viewBox="0 0 21 20" fill="none" xmlns="http://www.w3.org/2000/svg">
<path d="M19.5355 13.4453L14.8253 11.3347L14.8123 11.3287C14.5678 11.2241 14.3011 11.1821 14.0362 11.2066C13.7714 11.231 13.5168 11.3211 13.2956 11.4687C13.2695 11.4858 13.2445 11.5045 13.2206 11.5247L10.787 13.5993C9.24526 12.8504 7.65353 11.2707 6.90465 9.74895L8.98231 7.27836C9.0023 7.25336 9.0213 7.22837 9.0393 7.20137C9.1837 6.98071 9.27131 6.72777 9.29434 6.46507C9.31737 6.20236 9.27509 5.93804 9.17127 5.69562V5.68362L7.05463 0.965407C6.91739 0.648725 6.68141 0.384919 6.38193 0.213371C6.08244 0.0418229 5.7355 -0.0282664 5.3929 0.0135657C4.0381 0.191843 2.79452 0.857194 1.89442 1.88535C0.994323 2.91351 0.499268 4.23415 0.501718 5.60064C0.501718 13.5393 6.96064 19.9982 14.8993 19.9982C16.2658 20.0007 17.5865 19.5056 18.6146 18.6055C19.6428 17.7054 20.3081 16.4619 20.4864 15.1071C20.5283 14.7646 20.4584 14.4177 20.287 14.1182C20.1156 13.8188 19.852 13.5827 19.5355 13.4453ZM14.8993 18.3985C11.5063 18.3948 8.25322 17.0453 5.85395 14.646C3.45469 12.2467 2.10516 8.9937 2.10145 5.60064C2.09769 4.62429 2.44944 3.67995 3.09102 2.94398C3.7326 2.20802 4.62013 1.73075 5.58787 1.6013C5.58747 1.60529 5.58747 1.60931 5.58787 1.6133L7.68752 6.31252L5.62087 8.78611C5.59985 8.81021 5.58079 8.83595 5.56387 8.86309C5.41341 9.09397 5.32515 9.35981 5.30763 9.63483C5.29012 9.90985 5.34394 10.1847 5.46389 10.4328C6.36974 12.2855 8.23643 14.1382 10.1091 15.0431C10.359 15.1619 10.6355 15.2139 10.9115 15.1939C11.1875 15.1739 11.4536 15.0827 11.6839 14.9291C11.7096 14.9119 11.7343 14.8932 11.7578 14.8731L14.1884 12.7994L18.8877 14.9041H18.8987C18.7708 15.8732 18.2942 16.7625 17.5581 17.4057C16.822 18.0488 15.8768 18.4018 14.8993 18.3985Z" fill="#DDDDDD"/>
</svg>
