<svg width="17" height="17" viewBox="0 0 17 17" fill="none" xmlns="http://www.w3.org/2000/svg">
<path d="M2.125 16.2407C1.56141 16.2407 1.02091 16.0168 0.622398 15.6183C0.223883 15.2198 0 14.6793 0 14.1157V11.08C3.59917e-09 10.8384 0.09595 10.6068 0.266742 10.436C0.437534 10.2652 0.669178 10.1693 0.910714 10.1693C1.15225 10.1693 1.38389 10.2652 1.55469 10.436C1.72548 10.6068 1.82143 10.8384 1.82143 11.08V14.1157C1.82143 14.2833 1.95743 14.4193 2.125 14.4193H14.875C14.9555 14.4193 15.0327 14.3873 15.0897 14.3303C15.1466 14.2734 15.1786 14.1962 15.1786 14.1157V11.08C15.1786 10.8384 15.2745 10.6068 15.4453 10.436C15.6161 10.2652 15.8477 10.1693 16.0893 10.1693C16.3308 10.1693 16.5625 10.2652 16.7333 10.436C16.904 10.6068 17 10.8384 17 11.08V14.1157C17 14.6793 16.7761 15.2198 16.3776 15.6183C15.9791 16.0168 15.4386 16.2407 14.875 16.2407H2.125Z" fill="#E3E3E3"/>
<path d="M13.0894 4.97211C13.1739 5.05662 13.241 5.15696 13.2867 5.26738C13.3325 5.37781 13.356 5.49616 13.356 5.61568C13.356 5.7352 13.3325 5.85355 13.2867 5.96398C13.241 6.0744 13.1739 6.17474 13.0894 6.25925C13.0049 6.34377 12.9046 6.41081 12.7942 6.45655C12.6837 6.50229 12.5654 6.52583 12.4459 6.52583C12.3263 6.52583 12.208 6.50229 12.0976 6.45655C11.9871 6.41081 11.8868 6.34377 11.8023 6.25925L9.41014 3.86832V10.7764C9.41014 11.0179 9.31419 11.2496 9.1434 11.4204C8.97261 11.5912 8.74097 11.6871 8.49943 11.6871C8.25789 11.6871 8.02625 11.5912 7.85546 11.4204C7.68466 11.2496 7.58871 11.0179 7.58871 10.7764V3.86832L5.19657 6.25925C5.11206 6.34377 5.01172 6.41081 4.9013 6.45655C4.79087 6.50229 4.67252 6.52583 4.553 6.52583C4.43348 6.52583 4.31513 6.50229 4.2047 6.45655C4.09428 6.41081 3.99394 6.34377 3.90943 6.25925C3.82491 6.17474 3.75787 6.0744 3.71213 5.96398C3.66639 5.85355 3.64285 5.7352 3.64285 5.61568C3.64285 5.49616 3.66639 5.37781 3.71213 5.26738C3.75787 5.15696 3.82491 5.05662 3.90943 4.97211L7.85586 1.02568C8.02662 0.855133 8.25809 0.759338 8.49943 0.759338C8.74077 0.759338 8.97224 0.855133 9.143 1.02568L13.0894 4.97211Z" fill="#E3E3E3"/>
</svg>
