<svg width="51" height="46" viewBox="0 0 51 46" fill="none" xmlns="http://www.w3.org/2000/svg">
<g opacity="0.5">
<path d="M6.31405 46C4.63946 46 3.03346 45.3348 1.84934 44.1507C0.665228 42.9666 0 41.3606 0 39.686V30.6659C1.06943e-08 29.9482 0.285098 29.26 0.792575 28.7525C1.30005 28.245 1.98834 27.9599 2.70602 27.9599C3.4237 27.9599 4.11199 28.245 4.61947 28.7525C5.12695 29.26 5.41204 29.9482 5.41204 30.6659V39.686C5.41204 40.1839 5.81614 40.588 6.31405 40.588H44.1984C44.4376 40.588 44.667 40.493 44.8362 40.3238C45.0053 40.1547 45.1004 39.9252 45.1004 39.686V30.6659C45.1004 29.9482 45.3855 29.26 45.8929 28.7525C46.4004 28.245 47.0887 27.9599 47.8064 27.9599C48.5241 27.9599 49.2123 28.245 49.7198 28.7525C50.2273 29.26 50.5124 29.9482 50.5124 30.6659V39.686C50.5124 41.3606 49.8472 42.9666 48.6631 44.1507C47.479 45.3348 45.8729 46 44.1984 46H6.31405Z" fill="#DFDFDF"/>
<path d="M38.8998 12.5175C39.151 12.7686 39.3502 13.0667 39.4861 13.3948C39.622 13.7229 39.6919 14.0746 39.6919 14.4297C39.6919 14.7849 39.622 15.1365 39.4861 15.4646C39.3502 15.7927 39.151 16.0909 38.8998 16.342C38.6487 16.5931 38.3506 16.7923 38.0225 16.9282C37.6944 17.0641 37.3427 17.1341 36.9876 17.1341C36.6324 17.1341 36.2808 17.0641 35.9527 16.9282C35.6246 16.7923 35.3264 16.5931 35.0753 16.342L27.9675 9.23778V29.7639C27.9675 30.4815 27.6824 31.1698 27.1749 31.6773C26.6675 32.1848 25.9792 32.4699 25.2615 32.4699C24.5438 32.4699 23.8555 32.1848 23.348 31.6773C22.8406 31.1698 22.5555 30.4815 22.5555 29.7639V9.23778L15.4476 16.342C15.1965 16.5931 14.8984 16.7923 14.5703 16.9282C14.2422 17.0641 13.8905 17.1341 13.5354 17.1341C13.1803 17.1341 12.8286 17.0641 12.5005 16.9282C12.1724 16.7923 11.8743 16.5931 11.6231 16.342C11.372 16.0909 11.1728 15.7927 11.0369 15.4646C10.901 15.1365 10.8311 14.7849 10.8311 14.4297C10.8311 14.0746 10.901 13.7229 11.0369 13.3948C11.1728 13.0667 11.372 12.7686 11.6231 12.5175L23.3492 0.791385C23.8566 0.284636 24.5444 0 25.2615 0C25.9786 0 26.6664 0.284636 27.1737 0.791385L38.8998 12.5175Z" fill="#DFDFDF"/>
</g>
</svg>
